USFL
nRows=112
nColumns=2
inDegrees=yes
endheader
time	soleus_r	
3.375	 33.054500	
3.4375	 33.074982	
3.5	 33.089565	
3.5625	 33.051807	
3.625	 33.054093	
3.6875	 33.016115	
3.75	 33.025181	
3.8125	 33.068389	
3.875	 33.067162	
3.9375	 33.070823	
4	 33.089314	
4.0625	 33.196272	
4.125	 33.052844	
4.1875	 33.059029	
4.25	 33.086938	
4.3125	 33.049131	
4.375	 33.043271	
4.4375	 33.085719	
4.5	 33.103088	
4.5625	 33.036106	
4.625	 33.070036	
4.6875	 33.204959	
4.75	 33.151676	
4.8125	 33.214224	
4.875	 33.148862	
4.9375	 33.171331	
5	 33.147278	
5.0625	 33.226949	
5.125	 33.135780	
5.1875	 33.069791	
5.25	 33.076904	
5.3125	 33.086911	
5.375	 33.059223	
5.4375	 33.044193	
5.5	 33.083995	
5.5625	 33.329056	
5.625	 30.305930	
5.6875	 30.051115	
5.75	 27.697654	
5.8125	 27.753918	
5.875	 15.008343	
5.9375	 16.656925	
6	 16.380770	
6.0625	 16.515150	
6.125	 16.587598	
6.1875	 16.388559	
6.25	 16.807607	
6.3125	 17.216762	
6.375	 17.460665	
6.4375	 17.225682	
6.5	 17.144695	
6.5625	 17.141998	
6.625	 17.369506	
6.6875	 17.666996	
6.75	 17.636304	
6.8125	 17.620409	
6.875	 17.808372	
6.9375	 17.903400	
7	 18.108196	
7.0625	 18.113241	
7.125	 18.066730	
7.1875	 17.825792	
7.25	 17.589003	
7.3125	 17.370044	
7.375	 17.237183	
7.4375	 17.299399	
7.5	 17.331220	
7.5625	 17.433510	
7.625	 17.390760	
7.6875	 17.226820	
7.75	 17.086316	
7.8125	 17.073806	
7.875	 17.016806	
7.9375	 16.921640	
8	 16.736347	
8.0625	 16.706576	
8.125	 16.534258	
8.1875	 16.560055	
8.25	 16.343435	
8.3125	 16.226957	
8.375	 16.182469	
8.4375	 16.210848	
8.5	 16.302459	
8.5625	 16.330991	
8.625	 16.394255	
8.6875	 16.451021	
8.75	 16.464912	
8.8125	 16.466711	
8.875	 16.537093	
8.9375	 16.657794	
9	 16.737698	
9.0625	 16.735759	
9.125	 16.758391	
9.1875	 16.685828	
9.25	 16.741499	
9.3125	 16.817707	
9.375	 16.758159	
9.4375	 16.785654	
9.5	 16.545388	
9.5625	 16.507455	
9.625	 16.706213	
9.6875	 18.284548	
9.75	 19.545237	
9.8125	 23.979751	
9.875	 24.158221	
9.9375	 24.101548	
10	 23.824175	
10.0625	 28.561937	
10.125	 28.294553	
10.1875	 28.605713	
10.25	 28.793194	
10.3125	 28.842574	
